<svg xmlns="http://www.w3.org/2000/svg" xmlns:xlink="http://www.w3.org/1999/xlink" version="1.1" x="0px" y="0px" viewBox="0 0 24 30" enable-background="new 0 0 24 24" xml:space="preserve"><path d="M1.192,19.597c0.65,0.662,1.542,1.011,2.58,1.011h12.04c0.002,0,0.069,0,0.071,0c1.932,0,3.552-1.417,3.889-3.264h0.235  c0.023,0,0.048,0,0.071,0c1.011,0,1.966-0.385,2.695-1.089c0.746-0.72,1.168-1.688,1.187-2.726c0.037-2.11-1.625-3.864-3.723-3.95  c-0.047-0.751-0.356-1.454-0.885-2.001c-0.59-0.611-1.382-0.956-2.23-0.971c-0.041-0.001-0.086,0-0.13,0  c-0.562-1.876-2.263-3.182-4.25-3.217c-0.026,0-0.053-0.001-0.08-0.001c-1.895,0-3.578,1.2-4.229,2.965  C8.388,6.354,8.351,6.352,8.297,6.351c-2.044,0-3.849,1.369-4.425,3.304C2.379,9.584,1.1,10.803,1.1,12.305  c0,0.411,0.095,0.812,0.275,1.176C0.543,14.219,0.06,15.25,0.04,16.361C0.017,17.648,0.437,18.828,1.192,19.597z M12.729,4.192  c1.733,0.031,3.201,1.236,3.57,2.93c0.043,0.203,0.229,0.335,0.445,0.312c0.117-0.016,0.231-0.027,0.363-0.025  c1.312,0.023,2.359,1.11,2.336,2.422l0.4,0.007l-0.399,0.109c-0.007,0.109,0.031,0.216,0.105,0.297  c0.073,0.08,0.178,0.127,0.287,0.129l0.295,0.005c1.699,0.031,3.058,1.439,3.027,3.139c-0.015,0.824-0.349,1.592-0.941,2.165  c-0.594,0.572-1.355,0.878-2.204,0.864h-0.181c-0.053-2.079-1.706-3.781-3.794-3.862c-0.104-1.669-1.48-3.01-3.225-3.042  c-0.031,0-0.063,0-0.095,0.002c-0.486-1.624-1.822-2.837-3.473-3.183C9.834,5.078,11.203,4.141,12.729,4.192z M2.132,13.897  c0.173-0.128,0.213-0.369,0.092-0.547c-0.212-0.31-0.323-0.672-0.323-1.045c0-1.022,0.831-1.854,1.854-1.854  c0.118,0,0.232,0.014,0.345,0.035c0.209,0.044,0.42-0.098,0.465-0.31c0.371-1.753,1.94-3.025,3.8-3.025h0.001  c0.121,0.002,0.239,0.01,0.355,0.022c1.629,0.18,2.957,1.378,3.307,2.982c0.044,0.204,0.229,0.336,0.445,0.312  c0.111-0.016,0.224-0.026,0.369-0.026c0.001,0,0.003,0,0.005,0c1.347,0.024,2.423,1.14,2.398,2.487l0.4,0.007l-0.399,0.113  c-0.007,0.109,0.031,0.216,0.105,0.296c0.074,0.081,0.178,0.127,0.287,0.129l0.302,0.005c1.744,0.031,3.138,1.476,3.106,3.22  c-0.03,1.714-1.449,3.108-3.163,3.108l-12.111,0c-0.83,0-1.506-0.26-2.009-0.772c-0.606-0.617-0.942-1.587-0.923-2.662  C0.857,15.396,1.329,14.492,2.132,13.897z"/><text x="0" y="39" fill="#000000" font-size="5px" font-weight="bold" font-family="'Helvetica Neue', Helvetica, Arial-Unicode, Arial, Sans-serif">Created by Atif Arshad</text><text x="0" y="44" fill="#000000" font-size="5px" font-weight="bold" font-family="'Helvetica Neue', Helvetica, Arial-Unicode, Arial, Sans-serif">from the Noun Project</text></svg>