<svg xmlns="http://www.w3.org/2000/svg" xmlns:xlink="http://www.w3.org/1999/xlink" version="1.1" x="0px" y="0px" viewBox="0 0 100 125" style="enable-background:new 0 0 100 100;" xml:space="preserve"><g><path d="M49.32,67.5c10.02,0,18.18-8.15,18.18-18.17c0-7.31-4.35-13.88-11.07-16.74c-0.43-0.18-0.92-0.08-1.24,0.24   c-0.33,0.33-0.42,0.82-0.24,1.25c0.84,1.97,1.26,4.06,1.26,6.21c0,8.77-7.14,15.91-15.91,15.91c-2.15,0-4.25-0.42-6.21-1.26   c-0.43-0.18-0.92-0.08-1.25,0.24c-0.33,0.33-0.42,0.82-0.24,1.24C35.45,63.15,42.02,67.5,49.32,67.5z M40.29,58.47   c10.02,0,18.18-8.15,18.18-18.18c0-1.48-0.17-2.93-0.52-4.34c4.5,2.9,7.29,7.9,7.29,13.37c0,8.77-7.14,15.91-15.91,15.91   c-5.48,0-10.48-2.79-13.37-7.29C37.36,58.29,38.81,58.47,40.29,58.47z"/></g><text x="0" y="115" fill="#000000" font-size="5px" font-weight="bold" font-family="'Helvetica Neue', Helvetica, Arial-Unicode, Arial, Sans-serif">Created by creative_visionary</text><text x="0" y="120" fill="#000000" font-size="5px" font-weight="bold" font-family="'Helvetica Neue', Helvetica, Arial-Unicode, Arial, Sans-serif">from the Noun Project</text></svg>