<svg xmlns="http://www.w3.org/2000/svg" xmlns:xlink="http://www.w3.org/1999/xlink" version="1.1" x="0px" y="0px" viewBox="0 0 300 375" style="enable-background:new 0 0 300 300;" xml:space="preserve"><g><g><path d="M202.3,140.8c0,31.3-25.4,56.8-56.8,56.8s-56.8-25.4-56.8-56.8s56.8-124.3,56.8-124.3S202.3,109.4,202.3,140.8z"/></g><g><path d="M267.1,241.3c0,17.2-13.9,31.2-31.2,31.2s-31.2-13.9-31.2-31.2s31.2-68.2,31.2-68.2S267.1,224.1,267.1,241.3z"/></g><g><path d="M83,235.5c0,11.4-9.2,20.6-20.6,20.6s-20.6-9.2-20.6-20.6c0-11.4,20.6-45,20.6-45S83,224.1,83,235.5z"/></g></g><text x="0" y="315" fill="#000000" font-size="5px" font-weight="bold" font-family="'Helvetica Neue', Helvetica, Arial-Unicode, Arial, Sans-serif">Created by Angelo Troiano</text><text x="0" y="320" fill="#000000" font-size="5px" font-weight="bold" font-family="'Helvetica Neue', Helvetica, Arial-Unicode, Arial, Sans-serif">from the Noun Project</text></svg>